<svg xmlns="http://www.w3.org/2000/svg" viewBox="0 0 648.01 216"><g id="Layer_2" data-name="Layer 2"><g id="Layer_1-2" data-name="Layer 1"><g id="Design_Excellence" data-name="Design Excellence"><path d="M0,36V186a30,30,0,0,0,30,30H144S0,216,0,36Z"/><path d="M0,0H114a30,30,0,0,1,30,30V72S144,0,0,0Z"/><path d="M72,108h62a10,10,0,0,1,10,10v62S144,108,72,108Z"/></g><path d="M216,95.47v-70h23c20.77,0,33,13.12,33,34.86s-12.27,35.14-34,35.14ZM237.47,88c17.71,0,26.21-10.53,26.21-27.62S255.18,33,238.45,33h-13.8V88Z"/><path d="M275.55,69.63c0-16.14,9.62-27.35,24.12-27.35,11.16,0,23,6.7,23,26.25V72H283.81c.39,11.25,7.05,17.36,16.7,17.36,6.45,0,11.29-2.73,13.38-8.2l7.95,2.19c-2.51,7.93-10.46,13.26-21.33,13.26C285,96.56,275.55,85.76,275.55,69.63ZM314.31,65c0-8.89-5.71-15.45-14.64-15.45-9.41,0-15.3,7.28-15.86,15.45Z"/><path d="M358.39,56.77c-1.43-3.62-4.39-7.51-11.57-7.51-6.55,0-11.43,3.28-11.43,7.79,0,4,2.85,6.12,9.2,7.65l8,1.92c9.54,2.29,14.22,6.9,14.22,14.22,0,9-8.47,15.72-20.92,15.72-10.94,0-18.43-4.75-20.35-13.67L333.3,81c1.46,5.64,5.68,8.48,12.4,8.48,7.67,0,12.55-3.69,12.55-8.2,0-3.63-2.54-6.16-7.95-7.39l-8.92-2c-9.83-2.25-14.22-7.11-14.22-14.35,0-8.89,8.37-15.18,19.66-15.18,10.59,0,16.38,5,19,12.44Z"/><path d="M370.12,28.75a5.87,5.87,0,0,1,11.71,0,5.87,5.87,0,0,1-11.71,0ZM371.8,43H380v52.5H371.8Z"/><path d="M387.44,105.72l6.55-4.51c2.2,2.9,5.61,7.93,15.34,7.93,8.64,0,14.91-4,14.91-12.72V85.76h-.69c-1.82,2.87-5.16,8.89-15.62,8.89-13,0-22.72-9.3-22.72-25.71,0-16.13,9.34-26.66,22.86-26.66,10.46,0,13.8,6.29,15.62,9h.83V43h8V97c0,13.54-10.32,19.28-23.14,19.28C397.37,116.25,390.78,111.22,387.44,105.72Zm36.94-36.91c0-11.35-5.29-19.28-15.33-19.28-10.46,0-15.62,8.61-15.62,19.28,0,10.93,5.3,18.59,15.62,18.59C419,87.4,424.38,80.43,424.38,68.81Z"/><path d="M448.39,95.47h-8.23V43h7.95v8.2h.69c2.51-5.33,7.53-8.89,15.62-8.89,10.84,0,18.12,6.43,18.12,19.83V95.47h-8.22V62.65c0-8.23-4.64-13.12-12.27-13.12-7.88,0-13.66,5.19-13.66,14.35Z"/><path d="M216,121.7h43.08v7.52H224.65v23.66h32.2v7.52h-32.2v23.78h35v7.52H216Z"/><path d="M285.17,160.67,298,139.2h9.48l-17.29,26.25,17.29,26.25H298l-12.83-20.37L272.35,191.7h-9.48l17-26.25-17-26.25h9.48Z"/><path d="M307.09,165.73c0-16,9.62-27.21,24.12-27.21,11.29,0,19.79,6.56,21.19,16.41h-8.23c-1.25-4.79-5.58-9.16-12.82-9.16-9.62,0-16,7.79-16,19.68,0,12.17,6.28,20.1,16,20.1,6.41,0,11.29-3.42,12.82-9.16h8.23c-1.4,9.3-9.2,16.41-21,16.41C316.29,192.8,307.09,181.45,307.09,165.73Z"/><path d="M354.51,165.86c0-16.13,9.62-27.34,24.12-27.34,11.15,0,23,6.7,23,26.25v3.42H362.77c.39,11.24,7,17.36,16.7,17.36,6.45,0,11.29-2.73,13.38-8.2l7.95,2.19c-2.51,7.93-10.46,13.26-21.33,13.26C364,192.8,354.51,182,354.51,165.86Zm38.76-4.64c0-8.89-5.72-15.45-14.64-15.45-9.41,0-15.3,7.28-15.86,15.45Z"/><path d="M415,191.7h-8.23v-70H415Z"/><path d="M431,191.7h-8.22v-70H431Z"/><path d="M436.14,165.86c0-16.13,9.62-27.34,24.12-27.34,11.16,0,23,6.7,23,26.25v3.42H444.41c.38,11.24,7,17.36,16.69,17.36,6.45,0,11.29-2.73,13.38-8.2l7.95,2.19c-2.51,7.93-10.46,13.26-21.33,13.26C445.62,192.8,436.14,182,436.14,165.86Zm38.76-4.64c0-8.89-5.71-15.45-14.64-15.45-9.41,0-15.3,7.28-15.85,15.45Z"/><path d="M496.67,191.7h-8.22V139.2h7.95v8.21h.69c2.51-5.33,7.53-8.89,15.62-8.89,10.84,0,18.12,6.43,18.12,19.82V191.7h-8.22V158.89c0-8.24-4.64-13.12-12.27-13.12-7.88,0-13.67,5.19-13.67,14.35Z"/><path d="M536,165.73c0-16,9.62-27.21,24.12-27.21,11.29,0,19.8,6.56,21.19,16.41H573.1c-1.26-4.79-5.58-9.16-12.83-9.16-9.62,0-16,7.79-16,19.68,0,12.17,6.27,20.1,16,20.1,6.41,0,11.29-3.42,12.83-9.16h8.22c-1.39,9.3-9.2,16.41-21.05,16.41C545.21,192.8,536,181.45,536,165.73Z"/><path d="M583.44,165.86c0-16.13,9.62-27.34,24.12-27.34,11.15,0,23,6.7,23,26.25v3.42H591.7c.38,11.24,7,17.36,16.69,17.36,6.45,0,11.3-2.73,13.39-8.2l7.94,2.19c-2.51,7.93-10.45,13.26-21.33,13.26C592.92,192.8,583.44,182,583.44,165.86Zm38.75-4.64c0-8.89-5.71-15.45-14.63-15.45-9.42,0-15.31,7.28-15.86,15.45Z"/><path d="M635.46,186.1a6.28,6.28,0,1,1,6.28,6.15A6.23,6.23,0,0,1,635.46,186.1Z"/></g></g></svg>